<svg xmlns="http://www.w3.org/2000/svg" width="34" height="34" viewBox="0 0 34 34" fill="none"><path d="M26.9167 32.2291C24.6217 32.2291 22.4542 31.0391 21.2358 29.0841C20.5842 28.0783 20.2158 26.874 20.1875 25.6415C20.145 23.5732 21.0234 21.6466 22.5959 20.3432C23.7717 19.3657 25.245 18.8132 26.7609 18.7707C28.6025 18.7566 30.26 19.3941 31.5633 20.6407C32.8667 21.8874 33.6033 23.5591 33.6317 25.3583C33.66 26.5908 33.3484 27.7949 32.725 28.8574C32.385 29.4524 31.9458 30.0049 31.4217 30.4724C30.26 31.5633 28.7017 32.2007 27.0442 32.2291C27.0158 32.2291 26.9733 32.2291 26.9167 32.2291ZM26.9167 20.8957C26.8883 20.8957 26.8458 20.8957 26.8175 20.8957C25.7692 20.9241 24.7775 21.2924 23.9558 21.9724C22.8792 22.8649 22.2842 24.1824 22.3125 25.5991C22.3267 26.4349 22.5817 27.2565 23.0208 27.9507C23.885 29.339 25.3867 30.1891 27.0017 30.1041C28.1208 30.0757 29.1834 29.6508 29.9909 28.8999C30.3592 28.5741 30.6567 28.2057 30.8833 27.8091C31.3083 27.0724 31.5208 26.2507 31.5067 25.4149C31.4783 24.1824 30.9825 23.0349 30.09 22.1849C29.24 21.349 28.1067 20.8957 26.9167 20.8957Z" fill="#4812E1"></path><path d="M26.1374 27.9789C25.8682 27.9789 25.6132 27.8797 25.4007 27.6813L23.9699 26.3214C23.5449 25.9106 23.5307 25.2447 23.9415 24.8197C24.3524 24.3947 25.0182 24.3805 25.4432 24.7914L26.1374 25.4572L28.3615 23.3039C28.7865 22.8931 29.4524 22.9072 29.8632 23.3322C30.274 23.7572 30.2599 24.4231 29.8349 24.8339L26.8741 27.6955C26.6616 27.8797 26.3924 27.9789 26.1374 27.9789Z" fill="#4812E1"></path><path d="M16.9997 18.8416C16.8156 18.8416 16.6314 18.7991 16.4614 18.6999L3.95225 11.4608C3.44225 11.1633 3.27222 10.5116 3.56972 10.0016C3.86722 9.49157 4.51892 9.32154 5.01475 9.61904L16.9856 16.5466L28.8856 9.66158C29.3956 9.36408 30.0472 9.54827 30.3306 10.0441C30.6281 10.5541 30.4439 11.2057 29.9481 11.5032L17.5239 18.6999C17.3681 18.7849 17.1839 18.8416 16.9997 18.8416Z" fill="#4812E1"></path><path d="M17 31.6763C16.4192 31.6763 15.9375 31.1947 15.9375 30.6138V17.7646C15.9375 17.1838 16.4192 16.7021 17 16.7021C17.5808 16.7021 18.0625 17.1838 18.0625 17.7646V30.6138C18.0625 31.1947 17.5808 31.6763 17 31.6763Z" fill="#4812E1"></path><path d="M16.9999 32.2292C15.7532 32.2292 14.5066 31.96 13.5432 31.4075L5.97824 27.2142C3.92408 26.0809 2.30908 23.3467 2.30908 20.9951V12.9767C2.30908 10.625 3.92408 7.90508 5.97824 6.75758L13.5432 2.56422C15.4699 1.47339 18.5016 1.47339 20.4424 2.56422L28.0074 6.75758C30.0616 7.89092 31.6766 10.625 31.6766 12.9767V20.9951C31.6766 21.1367 31.6766 21.25 31.6482 21.3917C31.5774 21.76 31.3082 22.0717 30.9541 22.185C30.5999 22.3125 30.2032 22.2276 29.9057 21.9867C28.2766 20.5701 25.7549 20.5134 24.0407 21.8876C22.9499 22.7517 22.3124 24.0692 22.3124 25.4717C22.3124 26.3075 22.5391 27.1293 22.9782 27.8376C23.0916 28.0359 23.2049 28.1917 23.3324 28.3476C23.5449 28.5884 23.6299 28.9142 23.5733 29.2259C23.5166 29.5376 23.3183 29.8068 23.0349 29.9626L20.4424 31.3933C19.4791 31.96 18.2466 32.2292 16.9999 32.2292ZM16.9999 3.89589C16.1216 3.89589 15.2291 4.08006 14.5916 4.43423L7.02656 8.62759C5.6524 9.37843 4.4624 11.4183 4.4624 12.9767V20.9951C4.4624 22.5534 5.66656 24.5934 7.02656 25.3442L14.5916 29.5375C15.8807 30.26 18.1332 30.26 19.4224 29.5375L21.0091 28.6592C20.4849 27.71 20.2016 26.605 20.2016 25.4717C20.2016 23.4034 21.1224 21.4909 22.7233 20.2159C24.6499 18.6717 27.3982 18.3459 29.5657 19.2667V12.9484C29.5657 11.3901 28.3616 9.35006 27.0016 8.59923L19.4366 4.40587C18.7707 4.08003 17.8782 3.89589 16.9999 3.89589Z" fill="#4812E1"></path></svg>