<svg xmlns="http://www.w3.org/2000/svg" width="34" height="34" viewBox="0 0 34 34" fill="none"><path d="M12.9761 16.4618C12.9336 16.4618 12.9053 16.4618 12.8628 16.4618C12.792 16.4477 12.6928 16.4477 12.6078 16.4618C8.49947 16.3343 5.39697 13.1043 5.39697 9.1235C5.39697 5.07183 8.69781 1.771 12.7495 1.771C16.8011 1.771 20.102 5.07183 20.102 9.1235C20.0878 13.1043 16.9711 16.3343 13.0186 16.4618C13.0045 16.4618 12.9903 16.4618 12.9761 16.4618ZM12.7495 3.896C9.87364 3.896 7.52197 6.24766 7.52197 9.1235C7.52197 11.9568 9.73197 14.2377 12.5511 14.3368C12.6361 14.3227 12.8203 14.3227 13.0045 14.3368C15.7811 14.2093 17.9628 11.9285 17.977 9.1235C17.977 6.24766 15.6253 3.896 12.7495 3.896Z" fill="#F72A29"></path><path d="M23.4311 16.6457C23.3886 16.6457 23.3461 16.6457 23.3036 16.6315C22.7228 16.6882 22.1278 16.2773 22.0711 15.6965C22.0144 15.1157 22.3686 14.5915 22.9494 14.5207C23.1194 14.5065 23.3036 14.5065 23.4594 14.5065C25.5278 14.3932 27.1428 12.6932 27.1428 10.6107C27.1428 8.45734 25.4003 6.71484 23.2469 6.71484C22.6661 6.729 22.1844 6.24734 22.1844 5.6665C22.1844 5.08567 22.6661 4.604 23.2469 4.604C26.5619 4.604 29.2678 7.30984 29.2678 10.6248C29.2678 13.8832 26.7178 16.5182 23.4736 16.6457C23.4594 16.6457 23.4453 16.6457 23.4311 16.6457Z" fill="#F72A29"></path><path d="M12.9903 31.9457C10.2136 31.9457 7.42278 31.2373 5.31195 29.8207C3.34278 28.5173 2.26611 26.7323 2.26611 24.7915C2.26611 22.8507 3.34278 21.0515 5.31195 19.734C9.56195 16.9148 16.4469 16.9148 20.6686 19.734C22.6236 21.0373 23.7144 22.8223 23.7144 24.7632C23.7144 26.704 22.6378 28.5032 20.6686 29.8207C18.5436 31.2373 15.7669 31.9457 12.9903 31.9457ZM6.48778 21.519C5.12778 22.4257 4.39111 23.5873 4.39111 24.8057C4.39111 26.0098 5.14195 27.1715 6.48778 28.064C10.0153 30.4298 15.9653 30.4298 19.4928 28.064C20.8528 27.1573 21.5894 25.9957 21.5894 24.7773C21.5894 23.5732 20.8386 22.4115 19.4928 21.519C15.9653 19.1673 10.0153 19.1673 6.48778 21.519Z" fill="#F72A29"></path><path d="M25.9812 29.3959C25.4853 29.3959 25.0462 29.0559 24.947 28.5459C24.8337 27.965 25.202 27.4125 25.7687 27.285C26.6612 27.1009 27.4828 26.7467 28.1203 26.2509C28.9278 25.6417 29.367 24.8767 29.367 24.0692C29.367 23.2617 28.9278 22.4967 28.1345 21.9017C27.5112 21.42 26.732 21.08 25.8112 20.8675C25.2445 20.74 24.8762 20.1734 25.0037 19.5925C25.1312 19.0259 25.6978 18.6575 26.2787 18.785C27.497 19.0542 28.5595 19.5359 29.4237 20.2017C30.7412 21.1934 31.492 22.5959 31.492 24.0692C31.492 25.5425 30.727 26.945 29.4095 27.9509C28.5312 28.6309 27.4262 29.1267 26.2078 29.3675C26.1228 29.3959 26.052 29.3959 25.9812 29.3959Z" fill="#F72A29"></path></svg>