<svg xmlns="http://www.w3.org/2000/svg" width="32" height="32" viewBox="0 0 32 32" fill="none"><path d="M15.3337 30.3335C14.2804 30.3335 13.2804 29.7868 12.5871 28.8535L11.2271 27.0668C10.9471 26.6935 10.5737 26.4802 10.1737 26.4535C9.78708 26.4268 9.37378 26.6135 9.04045 26.9468C7.89378 28.1735 6.77371 28.7602 5.72038 28.7335C5.00038 28.7068 4.37372 28.3868 3.89372 27.8002C3.84038 27.7335 3.78707 27.6402 3.74707 27.5468C3.22707 26.4268 2.98706 24.9068 2.98706 22.6268V9.40018C2.98706 7.12018 3.22707 5.61351 3.74707 4.48018C3.78707 4.40018 3.82705 4.32018 3.89372 4.25351C4.36038 3.65351 4.98711 3.33351 5.70711 3.29351C6.77378 3.25351 7.9071 3.86684 9.0271 5.06684C9.36043 5.42684 9.7604 5.60018 10.1604 5.57351C10.5604 5.54684 10.9337 5.33351 11.2137 4.96018L12.5737 3.16018C13.2671 2.22684 14.2671 1.68018 15.3204 1.68018C16.3737 1.68018 17.3737 2.22684 18.0671 3.16018L19.4137 4.94684C19.6937 5.33351 20.0804 5.54684 20.4937 5.57351C20.8804 5.60018 21.2937 5.41351 21.627 5.06684C22.7204 3.89351 23.8004 3.29351 24.8404 3.29351C25.5871 3.29351 26.2804 3.62684 26.7604 4.25351C26.8138 4.32018 26.8671 4.40018 26.9071 4.49351C27.4271 5.61351 27.6671 7.13351 27.6671 9.41351V22.6402C27.6671 24.9202 27.4271 26.4268 26.9071 27.5602C26.8537 27.6802 26.7871 27.7868 26.6938 27.8802C26.2804 28.4135 25.6004 28.7468 24.8404 28.7468C23.8004 28.7468 22.7204 28.1468 21.627 26.9735C21.307 26.6268 20.8671 26.4402 20.4937 26.4668C20.0804 26.4935 19.7071 26.7068 19.4137 27.0935L18.0671 28.8802C17.3871 29.7868 16.3871 30.3335 15.3337 30.3335ZM10.1071 24.4402C10.1604 24.4402 10.2271 24.4402 10.2804 24.4402C11.2671 24.4935 12.1871 25.0135 12.8137 25.8535L14.1737 27.6535C14.8271 28.5335 15.8137 28.5335 16.467 27.6668L17.8137 25.8802C18.4537 25.0268 19.3871 24.5202 20.3738 24.4668C21.3604 24.4135 22.3471 24.8268 23.0671 25.6002C24.0537 26.6535 24.6537 26.7335 24.8137 26.7335C24.9204 26.7335 25.0138 26.7068 25.1071 26.6268C25.4804 25.7868 25.6404 24.5202 25.6404 22.6268V9.40018C25.6404 7.53351 25.4671 6.26684 25.1071 5.42684C25.0004 5.30684 24.8937 5.29351 24.8137 5.29351C24.6537 5.29351 24.0537 5.37351 23.0671 6.42684C22.3471 7.20018 21.3604 7.61351 20.3738 7.56018C19.3738 7.50684 18.4404 6.98685 17.8004 6.14685L16.4538 4.36018C15.8004 3.48018 14.8137 3.48018 14.1604 4.36018L12.8004 6.17351C12.1737 7.01351 11.2538 7.52018 10.2671 7.57351C9.28042 7.62684 8.29373 7.21351 7.57373 6.45351C6.7604 5.57351 6.13378 5.28018 5.78711 5.29351C5.70711 5.29351 5.61375 5.32018 5.50708 5.42684C5.14708 6.26684 4.97371 7.53351 4.97371 9.40018V22.6268C4.97371 24.5068 5.14708 25.7735 5.50708 26.6135C5.62708 26.7202 5.70711 26.7335 5.78711 26.7468C6.12044 26.7602 6.74705 26.4668 7.56038 25.6002C8.26705 24.8402 9.1871 24.4402 10.1071 24.4402Z" fill="#0EB4D9"></path><path d="M21.3334 14.6665H10.6667C10.1201 14.6665 9.66675 14.2132 9.66675 13.6665C9.66675 13.1198 10.1201 12.6665 10.6667 12.6665H21.3334C21.8801 12.6665 22.3334 13.1198 22.3334 13.6665C22.3334 14.2132 21.8801 14.6665 21.3334 14.6665Z" fill="#0EB4D9"></path><path d="M18.6667 19.3335H10.6667C10.1201 19.3335 9.66675 18.8802 9.66675 18.3335C9.66675 17.7868 10.1201 17.3335 10.6667 17.3335H18.6667C19.2134 17.3335 19.6667 17.7868 19.6667 18.3335C19.6667 18.8802 19.2134 19.3335 18.6667 19.3335Z" fill="#0EB4D9"></path></svg>