<svg xmlns="http://www.w3.org/2000/svg" xmlns:xlink="http://www.w3.org/1999/xlink" id="Layer_1" x="0px" y="0px" viewBox="0 0 30 30" style="enable-background:new 0 0 30 30;" xml:space="preserve"><style type="text/css">	.st0{fill:#82B541;}</style><path class="st0" d="M23.8,0.7c-0.8-0.5-3.2-0.2-6.1,0.7c-5,3.5-9.3,8.7-9.6,16.9c-0.1,0.2-0.6,0-0.6-0.1c-1.4-2.7-1.9-5.4-0.8-9.5 C6.9,8.5,6.2,8,6.1,8.2c-0.2,0.3-1.3,1.4-2,2.6c-3.4,6-1.2,13.8,4.8,17.1c6,3.4,13.5,1.2,16.9-4.9C29.7,16,26.1,2,23.8,0.7L23.8,0.7 z"></path></svg>