<svg xmlns="http://www.w3.org/2000/svg" width="31" height="30" viewBox="0 0 31 30" fill="none"><path d="M15.1191 0.386719C6.859 0.386719 0.134766 6.91059 0.134766 14.9353C0.134766 22.9552 6.859 29.4839 15.1191 29.4839C23.3792 29.4839 30.1035 22.9552 30.1035 14.9353C30.1035 6.90933 23.3792 0.386719 15.1191 0.386719ZM1.64569 14.934C1.64569 13.0391 2.06151 11.2388 2.81197 9.61295L9.24027 26.7075C4.74371 24.5846 1.64569 20.1097 1.64569 14.934ZM15.1191 28.0169C13.7955 28.0169 12.5205 27.829 11.3131 27.4823L15.3551 16.0785L19.4946 27.0955C19.5245 27.161 19.5557 27.2179 19.5907 27.2774C18.1947 27.7526 16.69 28.0169 15.1191 28.0169ZM16.9734 8.80676V8.8055C17.7827 8.76428 18.5131 8.6831 18.5131 8.6831C19.2386 8.60066 19.1536 7.56286 18.4282 7.60282C18.4282 7.60282 16.2467 7.76644 14.8394 7.76644C13.5158 7.76644 11.2919 7.60282 11.2919 7.60282C10.5677 7.5616 10.484 8.64178 11.2082 8.6831C11.2082 8.6831 11.8963 8.76554 12.6217 8.8055L14.7184 14.3897L11.7701 22.9721L6.86525 8.8055C7.67565 8.76428 8.40614 8.6831 8.40614 8.6831C9.13163 8.60066 9.04672 7.56286 8.32123 7.60282C8.32123 7.60282 6.13975 7.76644 4.73247 7.76644C4.47899 7.76644 4.1818 7.76043 3.86213 7.74947C6.27336 4.19971 10.4115 1.8537 15.1191 1.8537C18.6242 1.8537 21.8197 3.15706 24.2185 5.28474C24.1572 5.27863 24.1035 5.27388 24.0436 5.27388C22.7199 5.27388 21.7834 6.39402 21.7834 7.5968C21.7834 8.67582 22.424 9.58501 23.1071 10.6653C23.6203 11.5334 24.2197 12.6536 24.2197 14.2733C24.2197 15.3936 23.7789 16.6897 23.1919 18.5033L21.8496 22.8619L16.9734 8.80676ZM26.9443 8.65875C27.9957 10.5247 28.5939 12.6597 28.5939 14.9366C28.5939 19.7643 25.8991 23.9761 21.8933 26.2407L21.8921 26.2396L26.0066 14.688C26.7733 12.8221 27.0342 11.3334 27.0342 10.0009C27.0342 9.52081 27.0042 9.07465 26.9443 8.65875Z" fill="#009BCB"></path></svg>